<mxfile host="app.diagrams.net" modified="2024-01-24T22:58:26.205Z" agent="Mozilla/5.0 (Windows NT 10.0; Win64; x64) AppleWebKit/537.36 (KHTML, like Gecko) Chrome/120.0.0.0 Safari/537.36 Edg/120.0.0.0" etag="AeVq2-5wAcGeahr60NAI" version="22.1.21" type="device">
  <diagram name="Page-1" id="pXxGSXBaeuNa1CB5U-UI">
    <mxGraphModel dx="1002" dy="577" grid="1" gridSize="10" guides="1" tooltips="1" connect="1" arrows="1" fold="1" page="1" pageScale="1" pageWidth="850" pageHeight="1100" math="0" shadow="0">
      <root>
        <mxCell id="0" />
        <mxCell id="1" parent="0" />
        <mxCell id="CirWB5pCpKnN2UF-D0FG-43" style="edgeStyle=orthogonalEdgeStyle;rounded=0;orthogonalLoop=1;jettySize=auto;html=1;exitX=0.25;exitY=1;exitDx=0;exitDy=0;entryX=0.5;entryY=0;entryDx=0;entryDy=0;" edge="1" parent="1" source="CirWB5pCpKnN2UF-D0FG-1" target="CirWB5pCpKnN2UF-D0FG-3">
          <mxGeometry relative="1" as="geometry" />
        </mxCell>
        <mxCell id="CirWB5pCpKnN2UF-D0FG-1" value="RECEPSIONIST" style="rounded=0;whiteSpace=wrap;html=1;" vertex="1" parent="1">
          <mxGeometry x="130" y="190" width="120" height="60" as="geometry" />
        </mxCell>
        <mxCell id="CirWB5pCpKnN2UF-D0FG-44" style="edgeStyle=orthogonalEdgeStyle;rounded=0;orthogonalLoop=1;jettySize=auto;html=1;exitX=0;exitY=0.25;exitDx=0;exitDy=0;entryX=0.5;entryY=1;entryDx=0;entryDy=0;" edge="1" parent="1" source="CirWB5pCpKnN2UF-D0FG-2" target="CirWB5pCpKnN2UF-D0FG-3">
          <mxGeometry relative="1" as="geometry" />
        </mxCell>
        <mxCell id="CirWB5pCpKnN2UF-D0FG-46" value="Log in" style="edgeLabel;html=1;align=center;verticalAlign=middle;resizable=0;points=[];" vertex="1" connectable="0" parent="CirWB5pCpKnN2UF-D0FG-44">
          <mxGeometry x="0.7205" y="1" relative="1" as="geometry">
            <mxPoint as="offset" />
          </mxGeometry>
        </mxCell>
        <mxCell id="CirWB5pCpKnN2UF-D0FG-53" style="edgeStyle=orthogonalEdgeStyle;rounded=0;orthogonalLoop=1;jettySize=auto;html=1;exitX=0.25;exitY=0;exitDx=0;exitDy=0;entryX=0;entryY=1;entryDx=0;entryDy=0;" edge="1" parent="1" source="CirWB5pCpKnN2UF-D0FG-2" target="CirWB5pCpKnN2UF-D0FG-4">
          <mxGeometry relative="1" as="geometry">
            <Array as="points">
              <mxPoint x="400" y="510" />
              <mxPoint x="400" y="391" />
            </Array>
          </mxGeometry>
        </mxCell>
        <mxCell id="CirWB5pCpKnN2UF-D0FG-2" value="ADMIN" style="rounded=0;whiteSpace=wrap;html=1;" vertex="1" parent="1">
          <mxGeometry x="360" y="510" width="260" height="60" as="geometry" />
        </mxCell>
        <mxCell id="CirWB5pCpKnN2UF-D0FG-3" value="Identification&lt;br&gt;Process" style="ellipse;whiteSpace=wrap;html=1;" vertex="1" parent="1">
          <mxGeometry x="100" y="343" width="120" height="80" as="geometry" />
        </mxCell>
        <mxCell id="CirWB5pCpKnN2UF-D0FG-4" value="Data Modification" style="ellipse;whiteSpace=wrap;html=1;" vertex="1" parent="1">
          <mxGeometry x="380" y="280" width="180" height="120" as="geometry" />
        </mxCell>
        <mxCell id="CirWB5pCpKnN2UF-D0FG-17" style="edgeStyle=orthogonalEdgeStyle;rounded=0;orthogonalLoop=1;jettySize=auto;html=1;exitX=1;exitY=0;exitDx=0;exitDy=0;entryX=1;entryY=0.5;entryDx=0;entryDy=0;" edge="1" parent="1" source="CirWB5pCpKnN2UF-D0FG-5" target="CirWB5pCpKnN2UF-D0FG-7">
          <mxGeometry relative="1" as="geometry">
            <Array as="points">
              <mxPoint x="722" y="340" />
              <mxPoint x="760" y="340" />
              <mxPoint x="760" y="220" />
            </Array>
          </mxGeometry>
        </mxCell>
        <mxCell id="CirWB5pCpKnN2UF-D0FG-18" value="Takes&amp;nbsp;&lt;br&gt;Info about room&lt;br&gt;availability" style="edgeLabel;html=1;align=center;verticalAlign=middle;resizable=0;points=[];" vertex="1" connectable="0" parent="CirWB5pCpKnN2UF-D0FG-17">
          <mxGeometry x="0.3366" y="1" relative="1" as="geometry">
            <mxPoint y="8" as="offset" />
          </mxGeometry>
        </mxCell>
        <mxCell id="CirWB5pCpKnN2UF-D0FG-47" style="edgeStyle=orthogonalEdgeStyle;rounded=0;orthogonalLoop=1;jettySize=auto;html=1;exitX=0.5;exitY=1;exitDx=0;exitDy=0;entryX=1;entryY=0.25;entryDx=0;entryDy=0;" edge="1" parent="1" source="CirWB5pCpKnN2UF-D0FG-5" target="CirWB5pCpKnN2UF-D0FG-2">
          <mxGeometry relative="1" as="geometry" />
        </mxCell>
        <mxCell id="CirWB5pCpKnN2UF-D0FG-48" value="Views&lt;br&gt;Booked&lt;br&gt;Rooms" style="edgeLabel;html=1;align=center;verticalAlign=middle;resizable=0;points=[];" vertex="1" connectable="0" parent="CirWB5pCpKnN2UF-D0FG-47">
          <mxGeometry x="-0.6824" y="-1" relative="1" as="geometry">
            <mxPoint x="1" y="14" as="offset" />
          </mxGeometry>
        </mxCell>
        <mxCell id="CirWB5pCpKnN2UF-D0FG-5" value="Booking&amp;nbsp;&lt;br&gt;Process" style="ellipse;whiteSpace=wrap;html=1;" vertex="1" parent="1">
          <mxGeometry x="620" y="340" width="120" height="80" as="geometry" />
        </mxCell>
        <mxCell id="CirWB5pCpKnN2UF-D0FG-13" style="edgeStyle=orthogonalEdgeStyle;rounded=0;orthogonalLoop=1;jettySize=auto;html=1;exitX=0.5;exitY=1;exitDx=0;exitDy=0;entryX=0.5;entryY=0;entryDx=0;entryDy=0;" edge="1" parent="1" source="CirWB5pCpKnN2UF-D0FG-7" target="CirWB5pCpKnN2UF-D0FG-5">
          <mxGeometry relative="1" as="geometry" />
        </mxCell>
        <mxCell id="CirWB5pCpKnN2UF-D0FG-15" value="Send&lt;br&gt;Message" style="edgeLabel;html=1;align=center;verticalAlign=middle;resizable=0;points=[];" vertex="1" connectable="0" parent="CirWB5pCpKnN2UF-D0FG-13">
          <mxGeometry x="-0.3156" relative="1" as="geometry">
            <mxPoint as="offset" />
          </mxGeometry>
        </mxCell>
        <mxCell id="CirWB5pCpKnN2UF-D0FG-7" value="CLIENT" style="rounded=0;whiteSpace=wrap;html=1;" vertex="1" parent="1">
          <mxGeometry x="620" y="190" width="120" height="60" as="geometry" />
        </mxCell>
        <mxCell id="CirWB5pCpKnN2UF-D0FG-9" style="edgeStyle=orthogonalEdgeStyle;rounded=0;orthogonalLoop=1;jettySize=auto;html=1;exitX=0;exitY=0.5;exitDx=0;exitDy=0;" edge="1" parent="1" source="CirWB5pCpKnN2UF-D0FG-7" target="CirWB5pCpKnN2UF-D0FG-3">
          <mxGeometry relative="1" as="geometry">
            <mxPoint x="590" y="220" as="sourcePoint" />
            <mxPoint x="250" y="363" as="targetPoint" />
            <Array as="points">
              <mxPoint x="320" y="220" />
              <mxPoint x="320" y="360" />
            </Array>
          </mxGeometry>
        </mxCell>
        <mxCell id="CirWB5pCpKnN2UF-D0FG-10" value="Log in" style="edgeLabel;html=1;align=center;verticalAlign=middle;resizable=0;points=[];" vertex="1" connectable="0" parent="CirWB5pCpKnN2UF-D0FG-9">
          <mxGeometry x="-0.6659" y="-1" relative="1" as="geometry">
            <mxPoint x="32" y="1" as="offset" />
          </mxGeometry>
        </mxCell>
        <mxCell id="CirWB5pCpKnN2UF-D0FG-11" style="edgeStyle=orthogonalEdgeStyle;rounded=0;orthogonalLoop=1;jettySize=auto;html=1;exitX=0;exitY=0.75;exitDx=0;exitDy=0;entryX=1.017;entryY=0.355;entryDx=0;entryDy=0;entryPerimeter=0;" edge="1" parent="1" source="CirWB5pCpKnN2UF-D0FG-7" target="CirWB5pCpKnN2UF-D0FG-4">
          <mxGeometry relative="1" as="geometry" />
        </mxCell>
        <mxCell id="CirWB5pCpKnN2UF-D0FG-12" value="Change his information" style="edgeLabel;html=1;align=center;verticalAlign=middle;resizable=0;points=[];" vertex="1" connectable="0" parent="CirWB5pCpKnN2UF-D0FG-11">
          <mxGeometry x="-0.3938" y="1" relative="1" as="geometry">
            <mxPoint as="offset" />
          </mxGeometry>
        </mxCell>
        <mxCell id="CirWB5pCpKnN2UF-D0FG-14" style="edgeStyle=orthogonalEdgeStyle;rounded=0;orthogonalLoop=1;jettySize=auto;html=1;exitX=0.75;exitY=1;exitDx=0;exitDy=0;entryX=0.75;entryY=0;entryDx=0;entryDy=0;entryPerimeter=0;" edge="1" parent="1" source="CirWB5pCpKnN2UF-D0FG-7" target="CirWB5pCpKnN2UF-D0FG-5">
          <mxGeometry relative="1" as="geometry" />
        </mxCell>
        <mxCell id="CirWB5pCpKnN2UF-D0FG-16" value="Make&lt;br&gt;Booking" style="edgeLabel;html=1;align=center;verticalAlign=middle;resizable=0;points=[];" vertex="1" connectable="0" parent="CirWB5pCpKnN2UF-D0FG-14">
          <mxGeometry x="-0.4267" y="3" relative="1" as="geometry">
            <mxPoint y="34" as="offset" />
          </mxGeometry>
        </mxCell>
        <mxCell id="CirWB5pCpKnN2UF-D0FG-40" style="edgeStyle=orthogonalEdgeStyle;rounded=0;orthogonalLoop=1;jettySize=auto;html=1;exitX=1;exitY=0.25;exitDx=0;exitDy=0;entryX=0.331;entryY=0.04;entryDx=0;entryDy=0;entryPerimeter=0;" edge="1" parent="1" source="CirWB5pCpKnN2UF-D0FG-1" target="CirWB5pCpKnN2UF-D0FG-4">
          <mxGeometry relative="1" as="geometry" />
        </mxCell>
        <mxCell id="CirWB5pCpKnN2UF-D0FG-49" style="edgeStyle=orthogonalEdgeStyle;rounded=0;orthogonalLoop=1;jettySize=auto;html=1;exitX=0;exitY=0;exitDx=0;exitDy=0;entryX=0;entryY=0.692;entryDx=0;entryDy=0;entryPerimeter=0;" edge="1" parent="1" source="CirWB5pCpKnN2UF-D0FG-2" target="CirWB5pCpKnN2UF-D0FG-4">
          <mxGeometry relative="1" as="geometry" />
        </mxCell>
        <mxCell id="CirWB5pCpKnN2UF-D0FG-50" value="D1" style="text;html=1;align=center;verticalAlign=middle;resizable=0;points=[];autosize=1;strokeColor=none;fillColor=none;" vertex="1" parent="1">
          <mxGeometry x="310" y="378" width="40" height="30" as="geometry" />
        </mxCell>
        <mxCell id="CirWB5pCpKnN2UF-D0FG-51" value="D1=Change his information." style="text;html=1;align=center;verticalAlign=middle;resizable=0;points=[];autosize=1;strokeColor=none;fillColor=none;" vertex="1" parent="1">
          <mxGeometry x="85" y="598" width="170" height="30" as="geometry" />
        </mxCell>
        <mxCell id="CirWB5pCpKnN2UF-D0FG-52" value="D2=Add/Delete room and change prices." style="text;html=1;align=center;verticalAlign=middle;resizable=0;points=[];autosize=1;strokeColor=none;fillColor=none;" vertex="1" parent="1">
          <mxGeometry x="85" y="620" width="240" height="30" as="geometry" />
        </mxCell>
        <mxCell id="CirWB5pCpKnN2UF-D0FG-54" value="D2" style="text;html=1;align=center;verticalAlign=middle;resizable=0;points=[];autosize=1;strokeColor=none;fillColor=none;" vertex="1" parent="1">
          <mxGeometry x="370" y="398" width="40" height="30" as="geometry" />
        </mxCell>
        <mxCell id="CirWB5pCpKnN2UF-D0FG-56" value="D3=View Room Information" style="text;html=1;align=center;verticalAlign=middle;resizable=0;points=[];autosize=1;strokeColor=none;fillColor=none;" vertex="1" parent="1">
          <mxGeometry x="85" y="640" width="170" height="30" as="geometry" />
        </mxCell>
        <mxCell id="CirWB5pCpKnN2UF-D0FG-57" value="" style="endArrow=classic;html=1;rounded=0;entryX=0.25;entryY=0;entryDx=0;entryDy=0;" edge="1" parent="1" target="CirWB5pCpKnN2UF-D0FG-2">
          <mxGeometry width="50" height="50" relative="1" as="geometry">
            <mxPoint x="430" y="400" as="sourcePoint" />
            <mxPoint x="480" y="350" as="targetPoint" />
          </mxGeometry>
        </mxCell>
        <mxCell id="CirWB5pCpKnN2UF-D0FG-58" value="D3&lt;br&gt;" style="text;html=1;align=center;verticalAlign=middle;resizable=0;points=[];autosize=1;strokeColor=none;fillColor=none;" vertex="1" parent="1">
          <mxGeometry x="420" y="420" width="40" height="30" as="geometry" />
        </mxCell>
        <mxCell id="CirWB5pCpKnN2UF-D0FG-60" style="edgeStyle=orthogonalEdgeStyle;rounded=0;orthogonalLoop=1;jettySize=auto;html=1;exitX=0.5;exitY=1;exitDx=0;exitDy=0;entryX=0.426;entryY=-0.053;entryDx=0;entryDy=0;entryPerimeter=0;" edge="1" parent="1" source="CirWB5pCpKnN2UF-D0FG-4" target="CirWB5pCpKnN2UF-D0FG-2">
          <mxGeometry relative="1" as="geometry" />
        </mxCell>
        <mxCell id="CirWB5pCpKnN2UF-D0FG-61" value="D4=Get client Information" style="text;html=1;align=center;verticalAlign=middle;resizable=0;points=[];autosize=1;strokeColor=none;fillColor=none;" vertex="1" parent="1">
          <mxGeometry x="85" y="658" width="160" height="30" as="geometry" />
        </mxCell>
        <mxCell id="CirWB5pCpKnN2UF-D0FG-62" value="D4" style="text;html=1;align=center;verticalAlign=middle;resizable=0;points=[];autosize=1;strokeColor=none;fillColor=none;" vertex="1" parent="1">
          <mxGeometry x="460" y="428" width="40" height="30" as="geometry" />
        </mxCell>
      </root>
    </mxGraphModel>
  </diagram>
</mxfile>
